<?xml version="1.0" encoding="UTF-8" standalone="no"?> <!-- Created with Vectornator for iOS (http://vectornator.io/) --><!DOCTYPE svg PUBLIC "-//W3C//DTD SVG 1.1//EN" "http://www.w3.org/Graphics/SVG/1.1/DTD/svg11.dtd">
<svg height="100%" style="fill-rule:nonzero;clip-rule:evenodd;stroke-linecap:round;stroke-linejoin:round;" version="1.1" viewBox="0 0 595.35 419.58" width="100%" xml:space="preserve" xmlns="http://www.w3.org/2000/svg" xmlns:vectornator="http://vectornator.io" xmlns:xlink="http://www.w3.org/1999/xlink">
<metadata>
<vectornator:setting key="IsTimeLapseWatermarkDisabled" value="false"/>
<vectornator:setting key="UndoHistoryDisabled" value="true"/>
<vectornator:setting key="VNDimensionsVisible" value="true"/>
<vectornator:setting key="VNSnapToGuides" value="true"/>
<vectornator:setting key="WDCMYKEnabledKey" value="false"/>
<vectornator:setting key="WDDisplayWhiteBackground" value="false"/>
<vectornator:setting key="WDDynamicGuides" value="false"/>
<vectornator:setting key="WDGuidesVisible" value="true"/>
<vectornator:setting key="WDIsolateActiveLayer" value="false"/>
<vectornator:setting key="WDOutlineMode" value="false"/>
<vectornator:setting key="WDRulersVisible" value="true"/>
<vectornator:setting key="WDSnapToEdges" value="false"/>
<vectornator:setting key="WDSnapToGrid" value="false"/>
<vectornator:setting key="WDSnapToPoints" value="false"/>
<vectornator:setting key="WDUnits" value="Millimeters"/>
</metadata>
<defs/>
<g id="Calque 1" vectornator:layerName="Calque 1" visibility="hidden">
<path d="M398.112 189.31C398.078 190.044 398.064 190.468 398.029 191.214C398.438 191.235 398.834 191.294 399.239 191.326C398.855 190.657 398.526 189.969 398.112 189.31Z" fill="#c19ced" opacity="1"/>
<path d="M399.239 191.326C402.41 196.847 404.633 202.649 405.625 208.719C416.037 212.797 425.293 218.009 432.879 224.171C432.963 223.331 433.171 222.529 433.171 221.671C433.171 205.751 418.248 192.824 399.239 191.326Z" fill="#a371dd" opacity="1"/>
<path d="M432.879 224.171C431.292 239.903 415.32 252.314 395.65 252.314C395.464 252.314 395.292 252.279 395.107 252.277C393.416 290.454 392.876 302.808 391.768 328.419C429.153 318.467 455.542 294.442 455.542 266.311C455.542 250.35 447.052 235.685 432.879 224.171Z" fill="#9c53f2" opacity="1"/>
<path d="M94.7716 282.024L95.3142 221.708C95.3142 221.708 95.3961 221.599 95.3977 221.596C81.8127 225.623 72.0037 233.8 70.1054 244.886C67.7639 258.561 78.0285 272.684 94.7716 282.024Z" fill="#c2a0eb" opacity="1"/>
<path d="M95.3977 221.596C102.727 219.423 111.061 218.333 120.064 218.909C120.064 207.305 124.634 196.448 132.501 187.034C109.022 198.71 95.6032 221.249 95.3977 221.596Z" fill="#a371dd" opacity="1"/>
<path d="M383.922 192.67C382.62 195.684 381.326 198.655 379.832 201.59C385.9 202.654 391.751 204.064 397.319 205.808C397.61 199.463 397.762 196.937 398.029 191.214C397.226 191.172 396.465 191.027 395.65 191.027C391.529 191.027 387.631 191.667 383.922 192.67Z" fill="#c19ced" opacity="1"/>
<path d="M397.319 205.808C396.491 223.9 396.268 226.919 395.358 247.424C402.309 238.026 406.293 227.539 406.293 216.408C406.293 213.816 406.037 211.24 405.625 208.719C402.93 207.664 400.167 206.7 397.319 205.808Z" fill="#c19ced" opacity="1"/>
<path d="M395.358 247.424C394.211 248.975 392.994 250.492 391.685 251.978C392.826 252.077 393.937 252.263 395.107 252.277C395.213 249.882 395.251 249.816 395.358 247.424Z" fill="#c19ced" opacity="1"/>
<path d="M299.322 287.959C298.288 287.978 297.275 288.071 296.233 288.071C281.509 288.071 267.501 286.151 254.664 282.733C259.639 295.689 270.308 307.12 284.881 315.84C292.205 310.094 297.159 302.994 298.821 294.827C299.288 292.533 299.387 290.254 299.322 287.959Z" fill="#a25df2" opacity="1"/>
<path d="M254.664 282.733C254.082 281.217 253.542 279.698 253.12 278.143C250.751 278.847 248.322 279.473 245.858 280.046C248.725 281.011 251.656 281.933 254.664 282.733Z" fill="#c19ced" opacity="1"/>
<path d="M245.858 280.046C217.479 270.501 196.353 253.216 189.054 232.42C181.35 233.531 174.05 235.192 167.643 237.72C176.989 246.191 182.045 256.451 180.331 266.46C179.629 270.564 177.626 274.201 174.989 277.471C187.192 281.348 200.782 283.592 215.14 283.592C225.91 283.592 236.206 282.292 245.858 280.046Z" fill="#a96cef" opacity="1"/>
<path d="M174.989 277.471C161.609 273.22 149.915 266.95 140.807 259.182C139.365 261.876 138.285 264.702 137.677 267.692C135.993 275.964 137.852 284.341 142.56 292.176C156.771 290.861 168.462 285.564 174.989 277.471Z" fill="#c2a0eb" opacity="1"/>
<path d="M140.807 259.182C145.729 249.988 155.243 242.614 167.643 237.72C158.786 229.691 146.057 223.266 131.249 220.364C127.459 219.622 123.718 219.142 120.064 218.909C120.064 234.143 127.849 248.131 140.807 259.182Z" fill="#a96cef" opacity="1"/>
<path d="M258.545 241.938C254.038 249.506 251.45 257.693 251.45 266.311C251.45 270.353 252.076 274.297 253.12 278.143C266.08 274.29 277.498 268.532 286.676 261.384C279.632 253.87 270.193 247.109 258.545 241.938Z" fill="#a96cef" opacity="1"/>
<path d="M383.922 192.67C387.631 191.667 391.529 191.027 395.65 191.027C396.465 191.027 397.226 191.172 398.029 191.214C398.064 190.468 398.078 190.044 398.112 189.31C395.716 185.491 392.759 181.868 389.431 178.412C387.824 183.166 385.964 187.941 383.922 192.67Z" fill="#c19ced" opacity="1"/>
<path d="M398.029 191.214C397.762 196.937 397.61 199.463 397.319 205.808C400.167 206.7 402.93 207.664 405.625 208.719C404.633 202.649 402.41 196.847 399.239 191.326C398.834 191.294 398.438 191.235 398.029 191.214Z" fill="#c19ced" opacity="1"/>
<path d="M405.625 208.719C406.037 211.24 406.293 213.816 406.293 216.408C406.293 227.539 402.309 238.026 395.358 247.424C395.251 249.816 395.213 249.882 395.107 252.277C395.292 252.279 395.464 252.314 395.65 252.314C415.32 252.314 431.292 239.903 432.879 224.171C425.293 218.009 416.037 212.797 405.625 208.719Z" fill="#a371dd" opacity="1"/>
<path d="M395.107 252.277C393.937 252.263 392.826 252.077 391.685 251.978C373.187 272.974 338.888 287.243 299.322 287.959C299.387 290.254 299.288 292.533 298.821 294.827C297.159 302.994 292.205 310.094 284.881 315.84C303.013 326.69 327.039 333.345 353.496 333.345C367.04 333.345 379.942 331.566 391.768 328.419C392.876 302.808 393.416 290.454 395.107 252.277Z" fill="#9c53f2" opacity="1"/>
<path d="M284.881 315.84C270.308 307.12 259.639 295.689 254.664 282.733C251.656 281.933 248.725 281.011 245.858 280.046C236.206 282.292 225.91 283.592 215.14 283.592C200.782 283.592 187.192 281.348 174.989 277.471C168.462 285.564 156.771 290.861 142.56 292.176C153.061 309.654 177.691 324.476 208.42 329.65C239.324 334.854 268.241 328.895 284.881 315.84Z" fill="#a25df2" opacity="1"/>
<path d="M142.56 292.176C137.851 284.341 135.993 275.964 137.677 267.692C138.285 264.702 139.365 261.876 140.807 259.182C127.849 248.131 120.064 234.143 120.064 218.909C111.061 218.333 102.727 219.423 95.3977 221.596C95.3961 221.599 95.3142 221.708 95.3142 221.708L94.7716 282.024C101.9 286.001 110.101 289.201 119.187 290.982C127.358 292.583 135.236 292.854 142.56 292.176Z" fill="#c2a0eb" opacity="1"/>
<path d="M120.064 218.909C123.718 219.142 127.459 219.622 131.249 220.364C146.057 223.266 158.786 229.691 167.643 237.72C174.05 235.192 181.35 233.531 189.054 232.42C187.245 227.263 186.174 221.922 186.174 216.408C186.174 206.875 189.084 197.78 194.271 189.46C169.616 176.169 148.697 178.979 132.501 187.034C124.634 196.448 120.064 207.305 120.064 218.909Z" fill="#a96cef" opacity="1"/>
<path d="M189.054 232.42C196.352 253.216 217.479 270.501 245.858 280.046C248.322 279.473 250.751 278.847 253.12 278.143C252.076 274.297 251.45 270.353 251.45 266.311C251.45 257.693 254.038 249.506 258.545 241.938C249.431 237.891 239.158 234.733 228.078 232.868C214.321 230.552 201.127 230.679 189.054 232.42Z" fill="#a96cef" opacity="1"/>
<path d="M258.545 241.938C270.193 247.11 279.632 253.87 286.676 261.384C290.694 258.254 294.279 254.887 297.36 251.269C284.507 250.481 271.477 246.953 259.213 240.706C258.961 241.107 258.786 241.533 258.545 241.938Z" fill="#a96cef" opacity="1"/>
<path d="M286.676 261.384C277.498 268.532 266.08 274.29 253.12 278.143C253.542 279.698 254.082 281.217 254.664 282.733C267.501 286.151 281.509 288.071 296.233 288.071C297.275 288.071 298.288 287.978 299.322 287.959C299.061 278.678 294.361 269.581 286.676 261.384Z" fill="#c19ced" opacity="1"/>
<path d="M167.643 237.72C155.243 242.614 145.729 249.988 140.807 259.182C149.915 266.95 161.609 273.22 174.989 277.471C177.626 274.201 179.629 270.564 180.331 266.46C182.045 256.451 176.989 246.191 167.643 237.72Z" fill="#a96cef" opacity="1"/>
<path d="M301.178 104.71C268.224 104.71 241.522 131.644 241.522 164.866C241.522 198.087 268.224 225.022 301.178 225.022C334.132 225.022 360.865 198.087 360.865 164.866C360.865 187.595 342.779 206.022 320.459 206.022C298.139 206.022 280.022 187.595 280.022 164.866C280.022 142.136 298.139 123.71 320.459 123.71C342.779 123.71 360.865 142.136 360.865 164.866C360.866 131.644 334.132 104.71 301.178 104.71Z" fill="#fcad4c" opacity="1"/>
<path d="M190.55 83.3502L190.55 82.8048L190.55 82.2593L190.277 81.7138L190.277 81.7138" fill="#edc99c" opacity="1"/>
<path d="M379.844 201.594C374.97 211.166 369.053 220.165 361.844 227.688C366.251 231.648 371.73 237.618 377.344 245.062C378.498 246.592 379.386 248.01 380.438 249.5C383.933 250.769 387.715 251.623 391.688 251.969C392.996 250.483 394.197 248.988 395.344 247.437C396.254 226.932 396.484 223.905 397.312 205.812C391.745 204.069 385.912 202.658 379.844 201.594Z" fill="#c19ced" opacity="1"/>
<path d="M380.438 249.5C378.215 248.693 376.154 247.659 374.188 246.531C376.154 247.66 378.215 248.693 380.438 249.5Z" fill="#ff9163" opacity="1"/>
<path d="M374.188 246.531C373.686 246.243 373.202 245.932 372.719 245.625C373.205 245.934 373.683 246.242 374.188 246.531Z" fill="#ff9163" opacity="1"/>
<path d="M372.719 245.625C370.799 244.405 368.967 243.093 367.375 241.594C368.972 243.102 370.791 244.398 372.719 245.625Z" fill="#ff9163" opacity="1"/>
<path d="M367.375 241.594C365.806 240.117 364.482 238.459 363.281 236.75C364.483 238.467 365.803 240.109 367.375 241.594Z" fill="#ff9163" opacity="1"/>
<path d="M363.281 236.75C362.972 236.308 362.658 235.862 362.375 235.406C362.661 235.866 362.968 236.304 363.281 236.75Z" fill="#ff9163" opacity="1"/>
<path d="M362.375 235.406C361.265 233.623 360.294 231.783 359.625 229.812C360.292 231.778 361.27 233.625 362.375 235.406Z" fill="#ff9163" opacity="1"/>
<path d="M361.844 227.688C361.711 227.826 361.602 227.988 361.469 228.125C360.888 228.722 360.225 229.237 359.625 229.812C360.292 231.778 361.269 233.625 362.375 235.406C362.661 235.866 362.968 236.304 363.281 236.75C364.483 238.467 365.803 240.109 367.375 241.594C368.972 243.102 370.791 244.398 372.719 245.625C373.205 245.934 373.683 246.242 374.188 246.531C376.154 247.66 378.215 248.693 380.438 249.5C379.386 248.01 378.498 246.592 377.344 245.062C371.73 237.618 366.251 231.648 361.844 227.688Z" fill="#d363ff" opacity="1"/>
<path d="M380.438 249.5C382.471 252.381 384.295 255.097 385.875 257.688C387.902 255.825 389.936 253.957 391.688 251.969C387.715 251.623 383.933 250.769 380.438 249.5Z" fill="#c19ced" opacity="1"/>
<path d="M385.875 257.688C383.56 259.815 381.054 261.835 378.406 263.781C384.906 270.791 390.341 275.064 392 273.812C393.682 272.545 390.964 266.03 385.875 257.688Z" fill="#ff9163" opacity="1"/>
<path d="M356.125 232.812C342.708 244.13 325.454 250.434 307.188 251.281C308.393 257.111 309.219 265.472 309.219 275.156C309.219 279.523 309.062 283.682 308.781 287.469C336.433 285.401 360.877 276.662 378.406 263.781C375.214 260.339 371.856 256.429 368.375 251.812C363.064 244.77 358.774 238.027 356.125 232.812Z" fill="#c19ced" opacity="1"/>
<path d="M308.781 287.469C305.656 287.702 302.515 287.911 299.312 287.969C299.244 285.541 298.835 283.142 298.188 280.75C298.669 295.53 300.846 306.938 303.594 306.938C305.921 306.938 307.932 298.907 308.781 287.469Z" fill="#ff9163" opacity="1"/>
<path d="M298.188 280.75C298.126 278.867 298 277.14 298 275.156C298 265.496 298.8 257.142 300 251.312C299.124 251.284 298.253 251.335 297.375 251.281C294.293 254.899 290.706 258.245 286.688 261.375C292.362 267.428 296.359 273.999 298.188 280.75Z" fill="#c19ced" opacity="1"/>
<path d="M307.188 251.281C304.807 251.392 302.409 251.391 300 251.312C298.8 257.142 298 265.496 298 275.156C298 277.14 298.126 278.867 298.188 280.75C298.835 283.142 299.244 285.541 299.312 287.969C302.515 287.911 305.656 287.702 308.781 287.469C309.062 283.682 309.219 279.523 309.219 275.156C309.219 265.472 308.393 257.111 307.188 251.281Z" fill="#c19ced" opacity="1"/>
<path d="M359.625 229.812C358.51 230.882 357.302 231.82 356.125 232.812C358.774 238.027 363.064 244.77 368.375 251.812C371.856 256.429 375.214 260.339 378.406 263.781C381.054 261.835 383.56 259.815 385.875 257.688C384.295 255.097 382.471 252.381 380.438 249.5C370.343 245.835 362.631 238.666 359.625 229.812Z" fill="#7863ff" opacity="1"/>
<path d="M194.281 189.469C189.094 197.789 186.187 206.873 186.188 216.406C186.187 221.92 187.253 227.25 189.062 232.406C200.866 230.704 213.73 230.591 227.156 232.75C230.471 229.676 233.565 227.047 236.406 224.875C234.297 222.937 232.242 220.887 230.25 218.719C217.563 204.903 205.53 195.532 194.281 189.469Z" fill="#a96cef" opacity="1"/>
<path d="M243.062 230.406C241.916 231.957 240.63 233.55 239.188 235.281C246.058 237.056 252.557 239.285 258.531 241.938C258.772 241.533 258.966 241.119 259.219 240.719C253.634 237.874 248.228 234.397 243.062 230.406Z" fill="#a96cef" opacity="1"/>
<path d="M236.406 224.875C233.565 227.047 230.471 229.676 227.156 232.75C227.462 232.799 227.756 232.823 228.062 232.875C231.88 233.518 235.576 234.348 239.188 235.281C240.63 233.55 241.916 231.957 243.062 230.406C240.798 228.657 238.564 226.857 236.406 224.875Z" fill="#ca3ffa" opacity="1"/>
<g opacity="1">
<path d="M212.657 97.9029C201.121 97.9029 191.782 107.478 191.782 119.278C191.782 131.078 201.121 140.622 212.657 140.622C224.193 140.622 233.532 131.078 233.532 119.278C233.532 107.478 224.193 97.9029 212.657 97.9029ZM212.641 107.772C219.484 107.772 225.025 113.354 225.025 120.234C225.025 127.114 219.484 132.697 212.641 132.697C205.798 132.697 200.257 127.114 200.257 120.234C200.257 113.354 205.798 107.772 212.641 107.772Z" fill="#c3a3f1" opacity="1"/>
<path d="" fill="none" opacity="1"/>
</g>
<path d="M106.973 53.5047C97.2611 55.8642 91.5572 64.7446 93.8803 73.5321C93.8968 73.6089 93.8502 73.6834 93.8737 73.7598L93.9925 74.1512L101.314 97.9151L104.291 107.603L109.011 122.914L112.013 132.563L116.441 146.91L119.408 156.568L124.466 172.993L127.433 182.65L133.421 202.018C134.049 204.053 136.957 205.122 139.928 204.4L143.655 203.476C141.563 203.984 139.434 202.992 138.89 201.225L132.755 181.376L138.632 179.937C140.966 179.37 142.463 177.574 141.957 175.943L140.78 172.187C140.274 170.556 137.963 169.721 135.63 170.287L129.788 171.718L124.73 155.294L130.713 153.829C133.046 153.262 134.544 151.466 134.038 149.835L132.87 146.11C132.364 144.479 130.044 143.613 127.71 144.18L121.763 145.636L117.335 131.289L123.424 129.799C125.757 129.232 127.264 127.466 126.758 125.835L125.581 122.079C125.075 120.448 122.755 119.583 120.421 120.149L114.333 121.639L109.613 106.329L115.842 104.805C118.176 104.239 119.673 102.442 119.167 100.811L117.99 97.0556C117.485 95.4246 115.164 94.5591 112.831 95.1256L106.636 96.6409L104.646 90.2052L104.546 89.8739C104.526 89.8076 104.577 89.7428 104.562 89.6764C102.486 82.0613 106.15 74.6238 112.988 72.9625C119.827 71.3011 127.19 76.0516 129.77 83.5441C129.795 83.6082 129.875 83.6416 129.896 83.7079L129.996 84.0391L164.239 195.059C164.784 196.826 163.493 198.654 161.401 199.163L165.137 198.268C168.108 197.546 170.033 195.309 169.406 193.273L129.977 65.4067L129.859 65.0152C129.835 64.9389 129.754 64.8948 129.724 64.8213C126.685 56.2079 116.684 51.1453 106.973 53.5047Z" fill="#cba0ff" opacity="1"/>
</g>
<g id="Calque 1 copier" vectornator:layerName="Calque 1 copier">
<path d="M114.344 41.2188C113.091 41.2893 111.852 41.4863 110.594 41.7812C100.529 44.1407 94.6237 53.025 97.0312 61.8125C97.0483 61.8893 97.0069 61.9548 97.0312 62.0312L97.1562 62.4375L104.719 86.1875L107.812 95.875L112.688 111.188L115.812 120.844L120.406 135.188L123.5 144.844L128.719 161.25L131.812 170.938L137.594 189.094C135.327 190.144 133.127 191.292 131.031 192.625C119.308 200.077 110.618 211.042 104.844 219.781C101.89 220.254 99.0494 220.82 96.3438 221.594C82.2645 225.621 72.0611 233.789 70.0938 244.875C67.6671 258.549 78.3352 272.691 95.6875 282.031C103.075 286.008 111.551 289.188 120.969 290.969C129.436 292.57 137.629 292.865 145.219 292.188C156.102 309.665 181.59 324.482 213.438 329.656C245.466 334.86 275.473 328.898 292.719 315.844C311.511 326.693 336.424 333.344 363.844 333.344C377.881 333.344 391.244 331.554 403.5 328.406C442.245 318.455 469.562 294.444 469.562 266.312C469.563 250.351 460.782 235.67 446.094 224.156C446.182 223.315 446.374 222.514 446.375 221.656C446.375 206.301 431.979 193.841 413.281 191.625C412.595 191.544 411.947 191.366 411.25 191.312C410.852 190.644 410.491 189.971 410.062 189.312C407.614 185.547 404.578 181.975 401.188 178.562C386.155 281.438 287.283 248.952 282.219 247.219C282.406 244.612 282.239 242.109 281.719 239.781C278.801 221.623 261.106 205.947 239.281 203.5C235.677 203.096 232.236 203.175 228.875 203.5C227.718 198.578 225 193.78 221.125 189.562C216.658 184.701 210.642 180.618 203.5 178.125C192.906 174.427 182.369 175.085 174.5 178.969L134.406 53.6875L134.281 53.2812C134.257 53.2049 134.187 53.1672 134.156 53.0938C131.4 45.557 123.113 40.7249 114.344 41.2188ZM119.5 60.9062C125.745 60.805 131.848 65.2565 134.188 71.8125C134.213 71.8766 134.291 71.9024 134.312 71.9688L134.438 72.3125L169.531 182.156C168.618 182.915 167.801 183.744 167.031 184.625L139.688 99.125C139.053 97.1463 137.248 95.9095 135.688 96.375L135 96.5938C133.44 97.0592 132.679 99.0526 133.312 101.031L160.219 185C158.956 184.898 157.668 184.711 156.438 184.719C151.67 184.747 147.107 185.561 142.844 186.969L137.312 169.656L143.406 168.219C145.825 167.652 147.368 165.85 146.844 164.219L145.625 160.469C145.101 158.838 142.7 157.996 140.281 158.562L134.219 160L129 143.562L135.219 142.094C137.637 141.527 139.149 139.725 138.625 138.094L137.438 134.375C136.913 132.744 134.512 131.871 132.094 132.438L125.906 133.906L121.344 119.562L127.625 118.062C130.044 117.496 131.618 115.725 131.094 114.094L129.875 110.344C129.351 108.713 126.919 107.871 124.5 108.438L118.188 109.906L113.281 94.5938L119.781 93.0625C122.2 92.496 123.774 90.7247 123.25 89.0938L122.031 85.3438C121.507 83.7127 119.075 82.8397 116.656 83.4062L110.25 84.9062L108.188 78.4688L108.062 78.1562C108.041 78.09 108.11 78.0039 108.094 77.9375C105.943 70.3224 109.725 62.9114 116.812 61.25C117.698 61.0423 118.608 60.9207 119.5 60.9062ZM245.75 110.625C234.214 110.625 224.875 120.2 224.875 132C224.875 143.8 234.214 153.344 245.75 153.344C257.286 153.344 266.625 143.8 266.625 132C266.625 120.2 257.286 110.625 245.75 110.625ZM323.531 114.406C290.578 114.406 263.875 141.341 263.875 174.562C263.875 207.784 290.578 234.719 323.531 234.719C356.485 234.719 383.219 207.784 383.219 174.562C383.219 197.292 365.132 215.719 342.812 215.719C320.493 215.719 302.375 197.292 302.375 174.562C302.375 151.833 320.493 133.406 342.812 133.406C365.132 133.406 383.219 151.833 383.219 174.562C383.219 141.341 356.485 114.406 323.531 114.406ZM245.75 120.5C252.593 120.5 258.125 126.089 258.125 132.969C258.125 139.849 252.593 145.406 245.75 145.406C238.907 145.406 233.344 139.849 233.344 132.969C233.344 126.089 238.907 120.5 245.75 120.5ZM395.719 178.406C395.686 178.502 395.627 178.592 395.594 178.688L395.844 178.562C395.797 178.514 395.766 178.454 395.719 178.406Z" fill="#000000" opacity="1"/>
</g>
</svg>
