<svg id="visual" viewBox="0 0 960 540" width="960" height="540" xmlns="http://www.w3.org/2000/svg" xmlns:xlink="http://www.w3.org/1999/xlink" version="1.1"><path d="M0 50L11.5 49C23 48 46 46 68.8 46.8C91.7 47.7 114.3 51.3 137.2 48.7C160 46 183 37 205.8 34.3C228.7 31.7 251.3 35.3 274.2 38C297 40.7 320 42.3 342.8 44.2C365.7 46 388.3 48 411.2 45.3C434 42.7 457 35.3 480 33.5C503 31.7 526 35.3 548.8 33.5C571.7 31.7 594.3 24.3 617.2 25.2C640 26 663 35 685.8 35C708.7 35 731.3 26 754.2 23.3C777 20.7 800 24.3 822.8 23.5C845.7 22.7 868.3 17.3 891.2 21C914 24.7 937 37.3 948.5 43.7L960 50L960 0L948.5 0C937 0 914 0 891.2 0C868.3 0 845.7 0 822.8 0C800 0 777 0 754.2 0C731.3 0 708.7 0 685.8 0C663 0 640 0 617.2 0C594.3 0 571.7 0 548.8 0C526 0 503 0 480 0C457 0 434 0 411.2 0C388.3 0 365.7 0 342.8 0C320 0 297 0 274.2 0C251.3 0 228.7 0 205.8 0C183 0 160 0 137.2 0C114.3 0 91.7 0 68.8 0C46 0 23 0 11.5 0L0 0Z" fill="#7700ba"></path><path d="M0 141L11.5 138.3C23 135.7 46 130.3 68.8 127.7C91.7 125 114.3 125 137.2 126C160 127 183 129 205.8 122.7C228.7 116.3 251.3 101.7 274.2 102.5C297 103.3 320 119.7 342.8 117C365.7 114.3 388.3 92.7 411.2 90C434 87.3 457 103.7 480 101.8C503 100 526 80 548.8 66.5C571.7 53 594.3 46 617.2 48.8C640 51.7 663 64.3 685.8 65.2C708.7 66 731.3 55 754.2 60.3C777 65.7 800 87.3 822.8 93.7C845.7 100 868.3 91 891.2 85.7C914 80.3 937 78.7 948.5 77.8L960 77L960 48L948.5 41.7C937 35.3 914 22.7 891.2 19C868.3 15.3 845.7 20.7 822.8 21.5C800 22.3 777 18.7 754.2 21.3C731.3 24 708.7 33 685.8 33C663 33 640 24 617.2 23.2C594.3 22.3 571.7 29.7 548.8 31.5C526 33.3 503 29.7 480 31.5C457 33.3 434 40.7 411.2 43.3C388.3 46 365.7 44 342.8 42.2C320 40.3 297 38.7 274.2 36C251.3 33.3 228.7 29.7 205.8 32.3C183 35 160 44 137.2 46.7C114.3 49.3 91.7 45.7 68.8 44.8C46 44 23 46 11.5 47L0 48Z" fill="#8300cd"></path><path d="M0 228L11.5 221.7C23 215.3 46 202.7 68.8 205.3C91.7 208 114.3 226 137.2 232.3C160 238.7 183 233.3 205.8 210.8C228.7 188.3 251.3 148.7 274.2 150.5C297 152.3 320 195.7 342.8 203.8C365.7 212 388.3 185 411.2 178.7C434 172.3 457 186.7 480 178.5C503 170.3 526 139.7 548.8 127C571.7 114.3 594.3 119.7 617.2 131.3C640 143 663 161 685.8 167.3C708.7 173.7 731.3 168.3 754.2 160.3C777 152.3 800 141.7 822.8 136.3C845.7 131 868.3 131 891.2 130C914 129 937 127 948.5 126L960 125L960 75L948.5 75.8C937 76.7 914 78.3 891.2 83.7C868.3 89 845.7 98 822.8 91.7C800 85.3 777 63.7 754.2 58.3C731.3 53 708.7 64 685.8 63.2C663 62.3 640 49.7 617.2 46.8C594.3 44 571.7 51 548.8 64.5C526 78 503 98 480 99.8C457 101.7 434 85.3 411.2 88C388.3 90.7 365.7 112.3 342.8 115C320 117.7 297 101.3 274.2 100.5C251.3 99.7 228.7 114.3 205.8 120.7C183 127 160 125 137.2 124C114.3 123 91.7 123 68.8 125.7C46 128.3 23 133.7 11.5 136.3L0 139Z" fill="#8f00e1"></path><path d="M0 255L11.5 252.3C23 249.7 46 244.3 68.8 247.8C91.7 251.3 114.3 263.7 137.2 272.7C160 281.7 183 287.3 205.8 271.2C228.7 255 251.3 217 274.2 212.5C297 208 320 237 342.8 239.7C365.7 242.3 388.3 218.7 411.2 215.8C434 213 457 231 480 224.8C503 218.7 526 188.3 548.8 175.8C571.7 163.3 594.3 168.7 617.2 185.7C640 202.7 663 231.3 685.8 237.7C708.7 244 731.3 228 754.2 220.8C777 213.7 800 215.3 822.8 206.3C845.7 197.3 868.3 177.7 891.2 172.3C914 167 937 176 948.5 180.5L960 185L960 123L948.5 124C937 125 914 127 891.2 128C868.3 129 845.7 129 822.8 134.3C800 139.7 777 150.3 754.2 158.3C731.3 166.3 708.7 171.7 685.8 165.3C663 159 640 141 617.2 129.3C594.3 117.7 571.7 112.3 548.8 125C526 137.7 503 168.3 480 176.5C457 184.7 434 170.3 411.2 176.7C388.3 183 365.7 210 342.8 201.8C320 193.7 297 150.3 274.2 148.5C251.3 146.7 228.7 186.3 205.8 208.8C183 231.3 160 236.7 137.2 230.3C114.3 224 91.7 206 68.8 203.3C46 200.7 23 213.3 11.5 219.7L0 226Z" fill="#9c00f5"></path><path d="M0 379L11.5 378.2C23 377.3 46 375.7 68.8 373C91.7 370.3 114.3 366.7 137.2 363.8C160 361 183 359 205.8 340C228.7 321 251.3 285 274.2 292.3C297 299.7 320 350.3 342.8 355.8C365.7 361.3 388.3 321.7 411.2 325.2C434 328.7 457 375.3 480 366.3C503 357.3 526 292.7 548.8 281C571.7 269.3 594.3 310.7 617.2 336.7C640 362.7 663 373.3 685.8 368.8C708.7 364.3 731.3 344.7 754.2 343C777 341.3 800 357.7 822.8 350.5C845.7 343.3 868.3 312.7 891.2 308.2C914 303.7 937 325.3 948.5 336.2L960 347L960 183L948.5 178.5C937 174 914 165 891.2 170.3C868.3 175.7 845.7 195.3 822.8 204.3C800 213.3 777 211.7 754.2 218.8C731.3 226 708.7 242 685.8 235.7C663 229.3 640 200.7 617.2 183.7C594.3 166.7 571.7 161.3 548.8 173.8C526 186.3 503 216.7 480 222.8C457 229 434 211 411.2 213.8C388.3 216.7 365.7 240.3 342.8 237.7C320 235 297 206 274.2 210.5C251.3 215 228.7 253 205.8 269.2C183 285.3 160 279.7 137.2 270.7C114.3 261.7 91.7 249.3 68.8 245.8C46 242.3 23 247.7 11.5 250.3L0 253Z" fill="#a822ff"></path><path d="M0 482L11.5 479.2C23 476.3 46 470.7 68.8 468.8C91.7 467 114.3 469 137.2 473.5C160 478 183 485 205.8 480.5C228.7 476 251.3 460 274.2 450.2C297 440.3 320 436.7 342.8 438.5C365.7 440.3 388.3 447.7 411.2 453C434 458.3 457 461.7 480 466.2C503 470.7 526 476.3 548.8 471C571.7 465.7 594.3 449.3 617.2 455.5C640 461.7 663 490.3 685.8 502C708.7 513.7 731.3 508.3 754.2 500.3C777 492.3 800 481.7 822.8 474.5C845.7 467.3 868.3 463.7 891.2 458.2C914 452.7 937 445.3 948.5 441.7L960 438L960 345L948.5 334.2C937 323.3 914 301.7 891.2 306.2C868.3 310.7 845.7 341.3 822.8 348.5C800 355.7 777 339.3 754.2 341C731.3 342.7 708.7 362.3 685.8 366.8C663 371.3 640 360.7 617.2 334.7C594.3 308.7 571.7 267.3 548.8 279C526 290.7 503 355.3 480 364.3C457 373.3 434 326.7 411.2 323.2C388.3 319.7 365.7 359.3 342.8 353.8C320 348.3 297 297.7 274.2 290.3C251.3 283 228.7 319 205.8 338C183 357 160 359 137.2 361.8C114.3 364.7 91.7 368.3 68.8 371C46 373.7 23 375.3 11.5 376.2L0 377Z" fill="#b341ff"></path><path d="M0 509L11.5 506.2C23 503.3 46 497.7 68.8 497.7C91.7 497.7 114.3 503.3 137.2 505.2C160 507 183 505 205.8 502.2C228.7 499.3 251.3 495.7 274.2 490.3C297 485 320 478 342.8 479.8C365.7 481.7 388.3 492.3 411.2 500.3C434 508.3 457 513.7 480 516.3C503 519 526 519 548.8 513.7C571.7 508.3 594.3 497.7 617.2 499.5C640 501.3 663 515.7 685.8 522C708.7 528.3 731.3 526.7 754.2 525.8C777 525 800 525 822.8 516.8C845.7 508.7 868.3 492.3 891.2 487.8C914 483.3 937 490.7 948.5 494.3L960 498L960 436L948.5 439.7C937 443.3 914 450.7 891.2 456.2C868.3 461.7 845.7 465.3 822.8 472.5C800 479.7 777 490.3 754.2 498.3C731.3 506.3 708.7 511.7 685.8 500C663 488.3 640 459.7 617.2 453.5C594.3 447.3 571.7 463.7 548.8 469C526 474.3 503 468.7 480 464.2C457 459.7 434 456.3 411.2 451C388.3 445.7 365.7 438.3 342.8 436.5C320 434.7 297 438.3 274.2 448.2C251.3 458 228.7 474 205.8 478.5C183 483 160 476 137.2 471.5C114.3 467 91.7 465 68.8 466.8C46 468.7 23 474.3 11.5 477.2L0 480Z" fill="#bd58ff"></path><path d="M0 541L11.5 541C23 541 46 541 68.8 541C91.7 541 114.3 541 137.2 541C160 541 183 541 205.8 541C228.7 541 251.3 541 274.2 541C297 541 320 541 342.8 541C365.7 541 388.3 541 411.2 541C434 541 457 541 480 541C503 541 526 541 548.8 541C571.7 541 594.3 541 617.2 541C640 541 663 541 685.8 541C708.7 541 731.3 541 754.2 541C777 541 800 541 822.8 541C845.7 541 868.3 541 891.2 541C914 541 937 541 948.5 541L960 541L960 496L948.5 492.3C937 488.7 914 481.3 891.2 485.8C868.3 490.3 845.7 506.7 822.8 514.8C800 523 777 523 754.2 523.8C731.3 524.7 708.7 526.3 685.8 520C663 513.7 640 499.3 617.2 497.5C594.3 495.7 571.7 506.3 548.8 511.7C526 517 503 517 480 514.3C457 511.7 434 506.3 411.2 498.3C388.3 490.3 365.7 479.7 342.8 477.8C320 476 297 483 274.2 488.3C251.3 493.7 228.7 497.3 205.8 500.2C183 503 160 505 137.2 503.2C114.3 501.3 91.7 495.7 68.8 495.7C46 495.7 23 501.3 11.5 504.2L0 507Z" fill="#c66dff"></path></svg>