<svg id="Calque_1" data-name="Calque 1" xmlns="http://www.w3.org/2000/svg" viewBox="0 0 200 200"><defs><style>.cls-1{fill:#fff;}</style></defs><path class="cls-1" d="M198.1,321q97.91,0,195.81-.1c3.42,0,4.1.67,4.09,4.09q-.19,95.91,0,191.82c0,3.42-.67,4.1-4.09,4.09q-95.91-.2-191.82,0c-3.42,0-4.1-.67-4.09-4.09Q198.2,418.9,198.1,321Z" transform="translate(-198 -320.89)"/><path class="cls-1" d="M297.63,497.14c-11.32,0-22.64.05-34,0-5.61,0-7.11-2.54-4.6-7.64,5.34-10.86,10.86-21.64,16.14-32.54,1.52-3.13,3.6-4.29,7.05-4.2,3.75.09,8.89,1.76,10.92-.77,1.89-2.37.61-7.28.72-11.08a10.72,10.72,0,0,1,0-1.5c.73-4.22-.64-5.65-5.25-5.53-13.64.37-27.3.17-41,.12-13.36,0-23.67-8.08-25.6-19.84-2.12-12.91,4.56-23.77,17.61-28,2.19-.72,2.73-1.89,3.32-3.69,3.94-12.05,14.4-18.87,26.89-17.25a7.67,7.67,0,0,0,5.88-1.5c13.68-9.32,30.9-6.91,41.65,5.92a5.68,5.68,0,0,0,5.42,2.3c10.44-.63,18.63,4.26,22.5,13.11,3.78,8.66,1.86,17.8-5.36,25.14a7.55,7.55,0,0,0-2.22,3.67c-3.44,13.5-12,20.11-25.81,20.18-9.9.06-9.9.06-9.9,9.72,0,9.12,0,9.49,9,9,5.68-.33,8.71,1.56,11,6.74,4.55,10.13,9.84,19.93,14.78,29.88,2.68,5.42,1.25,7.78-4.79,7.81C320.6,497.18,309.11,497.14,297.63,497.14Z" transform="translate(-198 -320.89)"/><path class="cls-1" d="M361,425.79a3.81,3.81,0,0,1-2.23,3.6,3.38,3.38,0,0,1-4.18-.36c-2.65-2.5-5.23-5.09-7.76-7.72a3.49,3.49,0,0,1-.5-4.17,3.87,3.87,0,0,1,3.54-2.35C352.66,414.71,361.05,423,361,425.79Z" transform="translate(-198 -320.89)"/><path class="cls-1" d="M320.94,353.34c0-1.49-.05-3,0-4.48.1-2.54,1.42-4.07,4-4.13s4.07,1.33,4.14,3.92c.09,3.32.08,6.64,0,10a3.71,3.71,0,0,1-4.18,3.91,3.84,3.84,0,0,1-3.95-4.2C320.93,356.66,320.94,355,320.94,353.34Z" transform="translate(-198 -320.89)"/><path class="cls-1" d="M365.43,389.79c1.66,0,3.33-.08,5,0a3.61,3.61,0,0,1,3.74,3.83c.07,2.53-1.28,4.15-3.84,4.26-3.32.15-6.64.1-10,0a4.08,4.08,0,0,1,.1-8.15c1.66,0,3.32,0,5,0Z" transform="translate(-198 -320.89)"/><path class="cls-1" d="M350.25,372.93a3.93,3.93,0,0,1-3.72-2.06,3.35,3.35,0,0,1,.09-4.18c2.59-2.81,5.29-5.51,8.06-8.12a3.5,3.5,0,0,1,4.21-.24A3.84,3.84,0,0,1,361,362C360.92,364.47,352.73,372.82,350.25,372.93Z" transform="translate(-198 -320.89)"/><path class="cls-1" d="M268,425.8c-7,0-14,.07-21,0-9.38-.12-16.38-6.3-17-14.86-.64-9,5.18-15.92,14.88-17.23,3.6-.49,5-2.06,5.44-5.71,1.45-10.91,10.37-16.81,20.86-13.95,2.76.76,4.64.4,6.74-1.48,7.26-6.53,15.7-7.95,24.55-4.14,8.68,3.73,13.4,10.71,13.63,20.28.08,3.31,1.46,5,4.38,6.41,7.07,3.4,10.58,10.67,9,17.68-1.75,7.76-7.9,12.73-16.12,13-1.33,0-2.66,0-4,0-7.76,0-7.67,0-7.42-7.74a4.13,4.13,0,0,1,2.27-3.86c6-3.8,8.14-9.38,6.26-15.28a13.22,13.22,0,0,0-25.17,0c-1.85,5.92.29,11.52,6.32,15.28,4.3,2.69,2,6.64,2,9.86s-3.39,1.57-5.19,1.63C281.68,425.93,274.85,425.8,268,425.8Z" transform="translate(-198 -320.89)"/><path class="cls-1" d="M327.17,488.7H268.76c4.42-8.81,8.41-17.51,13.1-25.82,2.31-4.09,7-1.62,10.49-1.61,2.88,0,1.3,3.16,1.48,4.88.28,2.8.06,5.64.09,8.47s1.39,4.45,4.26,4.36c2.6-.08,3.85-1.7,3.88-4.23a97.68,97.68,0,0,0,0-10c-.28-3.25,1.12-3.55,4-3.87,5.61-.64,8.69,1.35,10.85,6.6C319.78,474.64,323.58,481.43,327.17,488.7Z" transform="translate(-198 -320.89)"/><path class="cls-1" d="M336.66,400.83c-2.52-5.28-5.71-9.36-10.4-12.2-2.89-1.75-2.17-5-2.44-7.65-.17-1.71,2-1,3.11-.91C336.42,381.15,341.47,391.32,336.66,400.83Z" transform="translate(-198 -320.89)"/><path class="cls-1" d="M302.94,403c-.51,2.79-2.09,4.7-4.88,4.69-3,0-5-1.93-4.89-5A4.53,4.53,0,0,1,298.4,398C301.21,398.26,302.63,400.24,302.94,403Z" transform="translate(-198 -320.89)"/></svg>